<?xml version="1.0" encoding="UTF-8"?>
<svg id="Layer_2" data-name="Layer 2" xmlns="http://www.w3.org/2000/svg" viewBox="0 0 603.39 556.83">
  <defs>
    <style>
      .cls-1 {
        fill: #9a9a9a;
      }

      .cls-1, .cls-2, .cls-3, .cls-4, .cls-5, .cls-6, .cls-7, .cls-8, .cls-9, .cls-10, .cls-11, .cls-12, .cls-13, .cls-14, .cls-15, .cls-16, .cls-17, .cls-18, .cls-19, .cls-20, .cls-21, .cls-22, .cls-23, .cls-24, .cls-25, .cls-26, .cls-27, .cls-28, .cls-29, .cls-30, .cls-31, .cls-32, .cls-33, .cls-34, .cls-35, .cls-36, .cls-37, .cls-38, .cls-39, .cls-40, .cls-41, .cls-42, .cls-43, .cls-44, .cls-45, .cls-46, .cls-47, .cls-48, .cls-49, .cls-50, .cls-51, .cls-52, .cls-53, .cls-54, .cls-55, .cls-56, .cls-57, .cls-58, .cls-59, .cls-60, .cls-61, .cls-62, .cls-63, .cls-64, .cls-65, .cls-66, .cls-67, .cls-68, .cls-69, .cls-70, .cls-71, .cls-72, .cls-73, .cls-74, .cls-75, .cls-76, .cls-77, .cls-78, .cls-79, .cls-80, .cls-81, .cls-82, .cls-83, .cls-84, .cls-85, .cls-86, .cls-87, .cls-88, .cls-89, .cls-90, .cls-91 {
        stroke-width: 0px;
      }

      .cls-2 {
        fill: #b4b4b4;
      }

      .cls-3 {
        fill: #aeaeae;
      }

      .cls-4 {
        fill: #8b8b8b;
      }

      .cls-5 {
        fill: #a6a6a6;
      }

      .cls-6 {
        fill: #5c5c5c;
      }

      .cls-7 {
        fill: #e4e4e4;
      }

      .cls-8 {
        fill: #4f4f4f;
      }

      .cls-9 {
        fill: #c5c5c5;
      }

      .cls-10 {
        fill: #666;
      }

      .cls-11 {
        fill: #a7a7a7;
      }

      .cls-12 {
        fill: #f8f8f8;
      }

      .cls-13 {
        fill: #7e7e7e;
      }

      .cls-14 {
        fill: #7b7b7b;
      }

      .cls-15 {
        fill: #fbfbfb;
      }

      .cls-16 {
        fill: #737373;
      }

      .cls-17 {
        fill: #c3c3c3;
      }

      .cls-18 {
        fill: #ddd;
      }

      .cls-19 {
        fill: #8c8c8c;
      }

      .cls-20 {
        fill: #848484;
      }

      .cls-21 {
        fill: #9d9d9d;
      }

      .cls-22 {
        fill: #bfbfbf;
      }

      .cls-23 {
        fill: #5b5b5b;
      }

      .cls-24 {
        fill: #bababa;
      }

      .cls-25 {
        fill: #525252;
      }

      .cls-26 {
        fill: #989898;
      }

      .cls-27 {
        fill: #979797;
      }

      .cls-28 {
        fill: #7f7f7f;
      }

      .cls-29 {
        fill: #6d6d6d;
      }

      .cls-30 {
        fill: #e1e1e1;
      }

      .cls-31 {
        fill: #494949;
      }

      .cls-32 {
        fill: #4a4a4a;
      }

      .cls-33 {
        fill: #afafaf;
      }

      .cls-34 {
        fill: #bbb;
      }

      .cls-35 {
        fill: #dbdbdb;
      }

      .cls-36 {
        fill: #a1a1a1;
      }

      .cls-37 {
        fill: #6e6e6e;
      }

      .cls-38 {
        fill: #6a6a6a;
      }

      .cls-39 {
        fill: #7a7a7a;
      }

      .cls-40 {
        fill: #d4d4d4;
      }

      .cls-41 {
        fill: #454545;
      }

      .cls-42 {
        fill: #878787;
      }

      .cls-43 {
        fill: #e0e0e0;
      }

      .cls-44 {
        fill: #7c7c7c;
      }

      .cls-45 {
        fill: #bcbcbc;
      }

      .cls-46 {
        fill: #575757;
      }

      .cls-47 {
        fill: #838383;
      }

      .cls-48 {
        fill: #4d4d4d;
      }

      .cls-49 {
        fill: #ababab;
      }

      .cls-50 {
        fill: #8d8d8d;
      }

      .cls-51 {
        fill: #eaeaea;
      }

      .cls-52 {
        fill: #b2b2b2;
      }

      .cls-53 {
        fill: #8e8e8e;
      }

      .cls-54 {
        fill: #d3d3d3;
      }

      .cls-55 {
        fill: #717171;
      }

      .cls-56 {
        fill: #626262;
      }

      .cls-57 {
        fill: #b5b5b5;
      }

      .cls-58 {
        fill: silver;
      }

      .cls-59 {
        fill: #535353;
      }

      .cls-60 {
        fill: #515151;
      }

      .cls-61 {
        fill: #c7c7c7;
      }

      .cls-62 {
        fill: #f9f9f9;
      }

      .cls-63 {
        fill: #bebebe;
      }

      .cls-64 {
        fill: #aaa;
      }

      .cls-65 {
        fill: #fcfcfc;
      }

      .cls-66 {
        fill: #cfcfcf;
      }

      .cls-67 {
        fill: #adadad;
      }

      .cls-68 {
        fill: #c9c9c9;
      }

      .cls-69 {
        fill: #969696;
      }

      .cls-70 {
        fill: #939393;
      }

      .cls-71 {
        fill: #8f8f8f;
      }

      .cls-72 {
        fill: #9e9e9e;
      }

      .cls-73 {
        fill: #e8e8e8;
      }

      .cls-74 {
        fill: #565656;
      }

      .cls-75 {
        fill: #4b4b4b;
      }

      .cls-76 {
        fill: #797979;
      }

      .cls-77 {
        fill: #a3a3a3;
      }

      .cls-78 {
        fill: #a4a4a4;
      }

      .cls-79 {
        fill: #d2d2d2;
      }

      .cls-80 {
        fill: #dedede;
      }

      .cls-81 {
        fill: #646464;
      }

      .cls-82 {
        fill: #676767;
      }

      .cls-83 {
        fill: #f0f0f0;
      }

      .cls-84 {
        fill: #585858;
      }

      .cls-85 {
        fill: #fafafa;
      }

      .cls-86 {
        fill: #6c6c6c;
      }

      .cls-87 {
        fill: #d8d8d8;
      }

      .cls-88 {
        fill: #949494;
      }

      .cls-89 {
        fill: #5a5a5a;
      }

      .cls-90 {
        fill: #f5f5f5;
      }

      .cls-91 {
        fill: #727272;
      }
    </style>
  </defs>
  <g id="Layer_1-2" data-name="Layer 1">
    <g>
      <path class="cls-37" d="M342.22,102.68c1.9-.99,2.75-2.67,3.42-4.63,1.39-4.07,2.87-8.12,4.51-12.09,4.03-9.71,6.63-10.91,17.25-8.26.07.88.4,1.7,1.26,1.94,7.05,2.03,13.28,5.83,19.77,9.06.6-.29,1.2-.57,1.8-.86,1.14-1.91,2.48-2.12,4.22-.67,1.93,1.61,4.38,2.7,5.13,5.42-.27,5.61-4.97,5.76-8.65,6.43-4.45.81-8.79,1.74-12.95,3.49-1.07.45-2.13.93-3.15,1.51-8.35,4.77-8.79,10.67-1.11,16.46,4.45,3.35,9.16,6.41,7.89,13.16-.25,1.31-.31,2.69-1.16,3.76-5.01,6.34-7.68,13.89-11,21.1-.42.92-.86,1.84-1.65,2.46-7.05,5.6-10.23,13.65-13.72,21.5-.54,1.23-1.07,2.61-2.21,3.27-4.63,2.67-6.2,7.03-7.26,11.91-1.05,4.82-3.75,8.38-8.8,9.9-5.28,1.59-7.99,6.7-12.47,9.43-11.02,2.85-21.9,4.35-32.05-4.1-.48,3.65,1.52,5.42,2.72,7.46,2.12,3.57,4.54,6.97,6.51,10.62,1.36,2.52.81,4.79-2.6,4.77-9.01-.04-17.86-1.77-26.71-3.12-3.65-.56-3.24-4.02-1.81-6.89,1.45-1.46,2.9-2.85,4.82-3.8,5.74-2.86,6.11-3.71,5.41-10.06-.28-2.52-1.53-5.51,2.68-6.07.72,1.06,1.43,2.12,2.16,3.17.74,1.06,1.44,1.29,2.01-.14,1.35-.62,2.65-1.91,3.99-1.91,6.22,0,7.3-4.55,9.45-9.04,5.76-12.06,4.53-24.1,1.36-36.34-.25-.96-.64-1.89-.47-2.92.31-.93.75-1.81,1.02-2.76,9.21-16.02,22.32-28.92,34.51-42.51,2.95-3.29,2.71-7.82,5.88-10.67Z"/>
      <path class="cls-56" d="M323.34,216.98c1.83-5.31,5.16-9.61,10.45-11.33,5.35-1.74,8-5.1,8.81-10.29.72-4.63,2.54-8.08,6.7-11,4-2.81,5.27-8.41,6.94-12.78,1.6-4.18,3.81-7.21,6.92-9.75,3.28-2.67,5.27-6.22,6.46-9.85,1.71-5.2,4.54-9.55,7.48-13.99,3.77-5.69,2.97-9.49-2.52-13.65-1.46-1.11-2.95-2.18-4.42-3.26-6.94-5.13-6.96-12.08.16-17.21,5.5-3.96,11.73-6.22,18.47-7.05,3.66-.45,7.34-.91,9.57-4.47,2.64-1.08,5.04,0,7.49.79,1.63,3.61,6.54,4.45,7.44,8.71,3.36,2.95,7.78,3.68,11.66,5.54,2.07.99,4.79,1.79,4.67,4.57-.12,2.85-2.7,4-5.06,4.92-4.25,1.66-8.72,1.99-13.24,2.1-7.65.19-15.26-.3-23.05-.7,13.67,6.22,26.87,13.04,37.88,23.66-8.59.91-16.23-2.93-24.83-4.89.65.87.83,1.34,1.16,1.51,9.08,4.78,9.49,5.73,5.54,15.38-3.39,8.28-8.78,15.33-14.77,21.81-15.9,17.2-33.85,31.5-56.73,38.46-4.3,1.31-8.62,2.56-13.15,2.74Z"/>
      <path class="cls-10" d="M318.21,381.93c.8.16,1.65.21,2.4.51,4.63,1.84,4.7,2.5.86,5.65-6.03,4.95-12.08,9.89-18.01,14.97-1.62,1.38-2.99,3.14-4.18,4.92-4.24,6.36-3.94,7.3,2.86,10.27,4.4,1.92,5.28,4.17,2.51,8.13-8.51,12.16-19.73,21-33.55,26.47-3.42,1.35-6.81,1.29-10.02-.81-.83-.54-1.76-.93-2.65-1.38-11.93-6-12.94-5.76-18.34,6.71-3.23,7.46-5.97,15.15-8.72,22.81-1.17,3.27-2.67,4.47-6.25,3.19-7.65-2.74-15.58-4.7-22.93-8.28-1.26-1.5-1.82-3.23-1.16-5.09,1.93-5.44,2.71-11.34,6.73-15.94,1.98-2.27,3.44-5.03,3.85-8.02,1.24-9.24,8.22-13.78,15.63-15.45,10.39-2.34,20.05-6.07,29.67-10.26,4.73.12,7.03,4.67,11.05,6.06,1.69,1.39,2.89,3.91,5.82,2.26,3.52-1.98,2.11-5.13,2-7.98.48-2.62-2.85-3.31-2.89-5.67.02-3.62-2.42-3.99-5.08-3.56-2.79.44-5.35,1.59-7.39,3.69-5.66,1.79-11.48,1.01-17.24,1.05-2.59-1.8-6.06-.91-8.59-2.84-1.11-1.17-1.38-2.78-2.77-3.96-3.77-3.23-3.7-7.18-.16-10.72,3.95-3.96,8.65-6.97,13.26-10.04,5.22-3.48,10.28-7.17,15.37-10.84,2.81,5.02,2.4,9.55-1.32,14.15-3.42,4.24-6.25,8.95-9.31,13.48-2.09,3.09-1.12,4.63,2.5,4.51,4.84-.17,9.47-1.42,14.03-2.99,2.35-.81,4.69-1.71,7.23-.66,4.65,1.92,4.19-.59,3.09-3.62.83-1.7,1.08-3.73,2.8-4.94,2.09-.57,2.25-2.3,2.73-4.06.65-2.39.81-5.25,3.78-6.31,8.41,2.97,15.93-1.51,23.79-2.99,2.88-.54,5.67-1.75,8.58-2.38Z"/>
      <path class="cls-34" d="M57.54,187.91c1.47-4.78.44-9.72.86-14.56.17-1.94-.15-3.93.8-5.76,1.66.15,2.09,1.37,2.42,2.72.23.91.18,2.22,1.47,2.25,1.11.02,1.59-1.1,2.01-1.98,3.21-6.76,7.25-12.98,11.51-19.15,15-21.75,35.41-34.97,61.33-39.7,2.99-.55,6.41-1.15,8.43,2.4,1.29,2.83-.85,4.29-2.46,5.85-2.02,1.95-4.74,2.9-6.17,4.08-1.4.79-1.12-.18-.93.46.03.09.15.08.36-.05,1.96-1.29,3.95-2.54,6.02-3.65,1.72-.92,3.37-1.43,5,.12,5.53,5.96,11.69,10.33,20.18,11.77,11.88,2.02,15.21,8.03,12.27,19.76-1.18,4.69-1.01,9.25.6,13.75,2.17,6.06,6.75,7.73,12.2,4.35,8.42-5.2,13.53-13.15,17.53-21.89,5.48-11.99,10.1-24.28,12.01-37.42.4-2.74,2.01-4.9,3.38-7.17,2.15-3.56,4.69-6.89,6.52-10.63,2.19-4.47,6.65-6.09,10.43-8.58,4.33-.38,7.53,2.32,11.07,4.1,2.07,4.19-2.58,5.69-3.48,8.7-.98.92-1.56,1.94-1.92,3.34-1,3.89-2.72,7.63-5.14,10.76-6.71,8.67-10.78,18.72-15.49,28.43-3.78,7.79-7.23,15.79-11.69,23.18-8.85,14.64-22.05,22.97-38.96,26.02-6.22,1.12-10.98-.44-15.57-4.1-1.92-3.75-3.37-7.61-3.08-11.92,3.37-5.92,3.91-12.7,5.65-19.1,1.87-6.87-.06-8.41-7.15-9.3-9.34-1.17-18.95-2.12-26.35-9.16-2.36-2.25-5.3-2.71-8.39-1.79-10.17,3.02-18.61,8.38-24.95,17.19-4.55,6.31-9.43,12.42-14.55,18.31-4.81,5.17-6.88,11.55-8.09,18.31-3.08,5.64-6.66,10.98-9.94,16.49-.77,1.29-1.68,2.52-3.5,2.27-1.96-.77-2.66-2.59-3.54-4.26-1.41-4.75-1.42-9.58-.68-14.43Z"/>
      <path class="cls-14" d="M200.35,339.75c2.24,2.69,1.97,6.63,5.37,10.16-.67-6.72-1.19-12.37-1.8-18.02-.79-7.31-.76-14.58.37-21.89.81-5.28,3.25-8.95,8.4-10.7,4.24-1.44,8.24-3.56,12.71-4.34,2,2.38.64,3.9-1.38,5.18-2.12,1.36-3.98,2.94-4.89,5.39-.34.92-.79,1.99-.04,2.81.86.94,1.88.26,2.67-.27.98-.66,1.99-1.14,3.17-1.29,4.89-2.21,9.1-5.96,14.75-6.44,6.48,4.38,13.16,3.34,19.87.67,2.32-.92,4.64-2.45,6.49.7-1.59,3.47-3.33,6.88-4.73,10.43-1.76,4.43-4.77,6.86-9.53,7.66-9.01,1.5-17.97,3.25-26.93,5.05-4.42.89-8.65,2.42-12.33,5.14-1.07.79-2.36,1.75-1.94,3.21.57,1.97,2.22.74,3.38.65,2.81-.21,5.6-.59,8.4-.9.54.54.9,1.15.91,1.93-.62,3.32-5.05,3.06-5.96,6.54,3.81-.02,6.84-4.78,10.9-1.73,8.8,4.35,17.53,3.23,26.24-.31,2.53-1.03,4.88-3.01,7.91-1.67,1.72,5.8-1.4,9.59-5.63,12.58-8.09,5.73-17.29,9.03-26.77,11.62-4.47,1.22-8.95,2.44-13.38,3.8-1.48.46-3.72.86-3.18,3.04.47,1.92,2.54,1.16,3.88,1,6.93-.81,13.87-1.27,20.84-.87,1.14.07,2.26.47,3.38.72-3.84,2.4-8.38,2.86-12.48,4.51-3.48.36-6.87,1.09-9.6,3.44-1.4,1.2-2.85,2.78.16,3.98,11.41,6.8,21.32,3.54,30.45-4.57,1.92-1.71,3.95-3,6.48-3.48,1.63.45,2.65,1.46,2.87,3.18.46,2.27-1.55,2.95-2.78,3.93-7.25,5.75-15.32,10.33-22.74,15.86-3.7,2.76-8.3,1.9-12.56,1.53-8.29-.71-8.37-.76-11.04,6.91-.44,1.26-1.04,2.44-1.77,3.56-.88,1.37-2.05,2.24-3.73,1.81-1.57-.4-2-1.77-1.87-3.13.67-7.2-2.07-14.1-1.77-21.25.25-2.72,1.28-5.44.27-8.32-3.46.56-4.52,6.4-9.15,4.06-4.79-3.98-6.08-11.7-3.04-19.08,2.27-5.51,4.84-10.91,4.08-17.13q2.21-6.71,7.06-5.66Z"/>
      <path class="cls-47" d="M232.37,222.95c-9.25,3.99-18.87,6.38-28.94,7.05-7.14.47-13.92-.49-20.19-4.13-.19-.96-.65-1.85-.5-2.91.89-6.12,10.03-15.24,16.21-15.57,12.28-.65,23.23-4.87,33.34-11.6,1.67-1.11,3.29-2.47,3.7-4.64.4-2.1,1.83-3.49,3.22-4.92,6.96-8.4,11-17.62,8.24-28.81-.49-2-.43-4.01,1.11-5.6,5.8-5.99,6.86-13.37,6.24-21.21-.36-4.54.46-9.25-1.77-13.56-.82-2.69-1.26-5.43-1.25-8.25,1.54-10.06,11.01-9.68,17.47-13.26-.02-.27.04-.51.2-.72,3.62-2.28,4.6.54,5.77,2.99-.66,4.17,1.39,2.29,2.68,1.09,4.63-4.31,9.4-8.39,14.79-11.79,3.4-2.14,5.09-2.34,4.63,2.42-.35,3.62,1.87,5.43,4.92,6.57,1.29,1.72.55,2.92-1,3.91-1.12.3-2.2.37-3.36-.04-8.34-2.95-13.96.09-16.5,8.86-.35,1.45-.91,2.82-1.78,4.04-2.01,1.49-2.49,3.7-3.01,5.98-.7,3.04-1.15,6.31-4.33,8.06-.86-.72-1.77-1.36-1.82.51-.09,2.82-.05,5.65-.09,8.47-.06,3.37-.45,6.86-2.53,9.49-4.84,6.12-6.37,13.17-6.02,20.59.63,13.52-4.14,25.38-10.39,36.88-4.96,8-10.54,15.42-19.02,20.09Z"/>
      <path class="cls-16" d="M204.19,384.53v24.41c3.38-2.23,3.76-4.74,4.06-7.28.72-5.98,1.99-7.99,7.34-6.66,12.73,3.17,22.25-2.76,31.77-9.39,4.09-2.85,8.01-5.96,12.01-8.95.31.36.62.71.94,1.07-1.29,4.07-5.12,5.52-8.14,7.72-5.64,4.1-11.66,7.66-16.72,12.58-3.57,3.46-5.65,6.63-1.14,10.82.64.59.69,1.82,1.01,2.75-.17,1.59-1.26,2.1-2.64,2.41-.66.15-1.47-.26-2,.45.79.23,1.52.58,2.06,1.24.87,2.53,2.76,3.35,5.3,3.52,4.82.32,9.45-.67,14.13-1.49,2-.35,4.22-1.33,5.87.93.45,1.16.38,2.22-.62,3.08-9.39,6.09-19.83,9-30.66,11.62-6.21,1.5-12.34,5.84-12.84,14.13-.12,2.01-1.23,4.29-2.57,5.84-5.46,6.29-6.83,14.2-9.15,21.75-10.24-1.59-12.61-10.8-16.82-17.93-1.98-3.35-3.74-6.41-7.26-8.19-1.94-5.7-2.84-11.62-3.18-17.58-.35-6.09,1.77-11.46,5.9-15.95,4.17-4.53,7.66-9.64,11.86-14.14,1.89-2.02,2.86-4.44,3.14-7.18.18-1.81.24-3.71,2.14-4.77,2.55-.45,3.36,1.34,3.32,3.19-.18,7.89.45,15.79-.26,23.66-.47,5.21-2.26,10.05-5.29,14.39,4.53-6.54,5.75-13.8,5.49-21.63-.22-6.61.1-13.25-.07-19.88-.05-2.1-.29-4.56,3.01-4.54Z"/>
      <path class="cls-90" d="M62.3,147.74c.57-6.84,3.2-13.06,5.87-19.26,5.35-12.47,13.41-22.91,23.86-31.48,6.12-5.02,12.91-8.73,21.06-9.4,3.58-.29,6.68-1.97,9.34-4.35,4.28-3.83,9.22-5.88,14.97-5.76,2.78.06,4.48-1.02,6-3.44,4.17-6.66,10.63-10.94,17.15-14.93,15.86-9.72,31.78-19.34,46.93-30.16,3.41,1.13,1.38,3.18.46,4.47-4.03,5.66-8.31,11.19-14.35,14.9-7.85,4.82-14.33,11.23-20.68,17.73-5.19,5.31-8.34,11.75-8.72,19.34-1.27,2.06-3.64,3.47-3.69,6.26-6.06,6.07-13.8,9.08-21.7,11.66-10.1,3.29-19.65,8.03-29.82,11.18-7.43,2.3-12.7,7.68-17.04,13.98-1.15,1.66-2.35,3.56-4.59,3.41-6.13-.39-9.17,3.94-12.48,7.84-2.79,3.29-5.1,7.01-8.49,9.75-2.54,2.05-3.51,1.56-4.06-1.73Z"/>
      <path class="cls-11" d="M83.29,169.53c.32-1.45.24-3.19,1.03-4.3,9.55-13.3,18.12-27.63,35.23-32.97,5.46-1.7,9.83-1.85,14.55,2.53,6.78,6.29,15.95,7.23,24.72,7.44,7.18.17,10.5,2.68,9.04,9.74-1.47,7.13-3.22,14.27-6.54,20.86-2.4-.11-2.56-2.25-3.44-3.76-1.71-2.93-3.42-3.2-5.08-.32-1.7,2.94-4.07,4.53-7.03,5.92-5.22,2.45-8.34,11.58-6.4,18.43,1.77,6.23,3.94,12.34,6.12,18.43.65,1.81,1.29,3.66,1.31,5.53.01,1.35,0,3.54-2.62,2.83-10.06-12.93-11.64-28.31-12.98-44.1-2.91,1.58-1.09,5.51-3.56,7.27-2.26-2.79-1.43-5.88-.08-8.9,3.61-8.08,7.99-15.67,14.42-21.92,1.23-1.2,2.86-2.18,3.61-4.79-10.81,6.4-19.66,13.89-26.07,24.53-.18-4.09.06-5.14,2.72-10.34,1.57-3.06,3.31-6.03,4.64-9.43-5.59,2.13-10.49,5.23-14.83,9.26-6.88,6.39-11.13,14.45-14.64,22.99-.82,2-1.49,4.07-2.38,6.04-.52,1.14-.87,2.83-2.5,2.7-1.48-.12-1.96-1.64-2.47-2.87-2.37-5.73-3.71-11.72-4.58-17.84-.19-1.34.33-3.3-2.19-2.96Z"/>
      <path class="cls-27" d="M77.47,208.64c1.22,2.82,2.92,3.92,5.6,1.59.12-.11.28-.18.43-.26,4.96-2.59,10.48-7.17,15.62-3.27,5.93,4.5,6.96,12.17,6.6,19.53-.09,1.79-.62,3.64-1.35,5.29-10.31,23.35-24.37,43.85-45.39,58.95-2.33,1.68-4.87,4.21-7.23-.26-2.46,2.9-2.18,6.17-2.65,9.23-1.01,6.49-2.72,7.89-9.25,7.71-3.49-.1-6.97-.2-10.46-.3-.51-.82-.46-1.83.24-2.26,6.09-3.69,6.9-10.42,8.98-16.2,2.22-6.15,4.5-12.13,8.23-17.56,3.41-4.96,5.77-10.45,7.8-16.14,2.64-7.39,6.02-14.45,11.81-20.07,1.38-1.34,2.58-2.71,4.69-1.47,2.44,1.31,2.47,3.08,1.37,5.43-2.69,5.76-4.67,11.82-6.36,15.58,3.93-11.88,10.69-24.82,18.95-37-1.65,2.02-3.3,4.05-4.65,6.27-1.47,2.42-2.99,4.8-4.35,7.28-1.1,1.99-2.34,3.84-5.07,2.21-1.48-.84-1.89-2.24-1.89-3.76,0-6.31,1.4-12.34,4.02-18.07.83-1.81,2.25-2.77,4.34-2.48Z"/>
      <path class="cls-32" d="M573.14,277.94c6.39,1.75,8.63,11.68,4.04,18.2-1.43,2.03-3.16,3.85-4.68,5.83-2.24,2.91-4.22,5.97-5.32,9.52-.65,2.09-1.33,4.26.62,6.04,1.82,1.65,3.73.64,5.61-.04,1.21-.44,2.57-1.75,3.67-.84,1.43,1.18.12,2.81-.36,4.1-5.33,14.17-11.65,27.9-18.69,41.3-.88,1.68-2.26,3.25-2.01,7.01,6.94-10.76,12.89-20.5,18.63-30.48-3.01,16.27-11.3,30.21-19.37,44.25-.67-.09-1.06-.47-1.15-1.14-1.47-2.16-.17-5.89-3.85-6.8-4.57-1.11-7.8-4.14-10.83-7.48-.64-1.08-.29-2.21-.16-3.34.29-2.37-.48-3.51-3.03-2.64-3.33,1.14-4.55-.42-4.53-3.57.01-2.61-.11-5.22-.45-7.81.48-10.48,2.68-20.58,6.62-30.3,4.86-1.28,6.92-5.16,8.4-9.38,2.25-6.39,5.76-11.86,10.8-16.41,5.61-5.07,9.43-11.94,16.05-16.02Z"/>
      <path class="cls-36" d="M397.39,51.09c.68-.99,1.22-2.01.74-3.25-1.8-4.68-12.71-7.35-17.18-4.95-13.27,7.15-27.32,10.73-42.49,7.66,5.46-1.51,10.34-6.39,16.69-2.89.64.35,1.71.31,2.44.05,6.88-2.51,14.24-3.51,20.88-6.72.74-.36,1.55-.65,1.98-2.47-26.58-2.82-46.77-15.93-60.77-38.51,12.68,13.08,29.98,16.44,46.26,21.8,11.05,3.64,22.4,6.38,33.46,10,10.39,3.4,20.06,8.21,26.68,17.51,1.59,2.23,3.85,2.3,6.25,2.21,7.02-.27,14,.09,20.87,1.57,9.01,1.94,17.54,5.08,24.82,10.99.14,5.35-4.62,6.02-7.81,8.18-8.17-4.88-16.9-8.17-26.97-9.55,2.2,2.62,5.53,1.79,7.11,4.1.31,3.11-1.61,4.1-4.21,4.32-9.64.81-18.9,0-26.89-6.3-4.38-3.46-9.7-4.9-14.79-6.89-3.11-1.21-7.42-1.81-7.08-6.85Z"/>
      <path class="cls-39" d="M333.24,255.94c2.13,1.2,3.75,2.94,5.19,4.87-.33,1.59-1.56,2.06-2.92,2.23-2.46.31-4.89,1.2-7.35,1.11-10.04-.4-17.07,5.34-23.98,11.42-5.04,1.89-9.73,4.3-13.06,8.75-.7.93-1.66,1.92-1.21,3.11.57,1.52,2.14,1.37,3.45,1.34,3.31-.09,6.62-.69,9.93.04.34.37.47.81.41,1.31-.88,2.14-2.89,1.85-4.63,2.15-5.44.93-7.03,2.67-7.26,8.19-.18,4.33.26,8.67-.22,12.99-.18,1.61,1.24.4,1.58,1.05,1.96,2.17,3.55,4.39,1.09,7.2-2.8,2.34-5.6,4.68-8.4,7.02-.87.73-1.64,1.99-2.92,1.54-1.45-.51-1.59-2.05-1.59-3.36.03-7.48-.22-14.99.3-22.44.48-6.84.3-13.45-.89-20.28-1.75-10,.13-20.25-.37-30.38-.11-2.26.53-4.61-.77-7.31-3.42,2.09-4.32,5.47-5.12,8.71-1.78,7.27-3.31,14.64-3.16,22.16.09,4.78-1.87,5.89-6.11,4.44-16.35-5.58-32.19-1.9-47.97,2.74-1.13.33-2.4.51-1.93,2.21.79.97.85,1.95,0,2.92-1.16.19-2.24.07-3.18-.71-4.24-5.11-2.26-11.4,4.36-12.19,11.45-1.38,21.3-7.18,31.82-11.1,5.54-2.07,9.96-5.88,13.17-10.96,1.14-1.81,2.17-3.69,3.92-5.07,3.55-2.8,5.26-6.41,4.58-11,5.04-1.56,10.18-1.1,15.31-.78,4.1,3.97,4.81,9.39,1.42,14.04-1.4,1.93-1.42,2.79.41,4.41,3.1,2.75,5.61,6.04,10.6,5.04,4.8-.96,6.28-3.01,4.61-7.69-1.16-3.24-3.33-6.21-2.44-9.96,1.46-2.16,3.4-3.39,6.08-3.18,2.73,1.28,4.05,3.57,5.02,6.35,2.71,7.79,6.49,10.21,14.73,9.03,2.59-.37,5.03.82,7.52.04Z"/>
      <path class="cls-5" d="M195.22,345.64c1.8,3.65.62,7.07-.65,10.58-1.68,4.63-4.5,8.85-4.36,14.15.11,3.97.72,7.57,3.31,10.67,1.58,2.92-1.06,4.1-2.46,5.7-1.17,1.33-3.01,2.26-1.57,4.47,2.57,8.09-2.61,13.25-7.35,18.23-3.74,3.93-8.53,2.96-12.98.84-3.25-1.55-5.52-3.99-6.03-7.74.26-5.73,2.75-10.91,4.09-16.37.99-4.03,1.96-8.1,3.37-11.99,5.76-15.91,4.24-31.84,1.58-48.14-2.11-12.91-2.18-26.16-3.14-39.26-.06-.78-.17-1.67,1.69-2.53,5.15,15.74,11.1,31.11,22.32,43.66-1.78,2.64-2.05,5.43-.73,8.32,1.38,3.02,1.68,6.36,2.9,9.42Z"/>
      <path class="cls-71" d="M35.25,315.94c11.01,3.36,17.42,11.64,21.07,21.71,5.99,16.53,9.31,33.62,7.43,51.42-1.47,13.92-.59,27.54,5.36,40.57,2.45,5.37,4.07,11.13,6.39,17.63v-10.42c.71-.89,1.37-1.89,2.73-.98,2.99,13.82,5.84,27.68,12.47,40.38.75,1.43,2.46,3.15,1.31,4.51-1.49,1.76-3.3-.25-4.9-.83-1.88-.69-3.7-1.55-5.78-1.2-2.95-.12-3.18-2.54-3.69-4.56-1.78-7.08-3.82-14.07-7.16-20.6-5.96-11.21-12.8-22.02-15.04-34.85-.53-3.04-.41-6.29-2.36-8.98-2.42-15.77-7.7-30.87-10.76-46.49-.61-3.1-2.6-5.67-3.53-8.67-.02-.16-.09-.37,0-.48,6.99-9.16,2.07-16.69-3.31-24.16-3.05-2.71-3.74-6.68-4.99-10.2-1.61-4.52,2.51-3.3,4.76-3.79Z"/>
      <path class="cls-61" d="M35.25,315.94c-1.92.87-3.96,1.14-1.55,4.21,1.85,2.36,1.12,6.3,3.73,8.65-.27,2.45-1.31,4.36-3.63,5.47-5.55,2.64-10.26,6.44-14.79,10.55-2.61,2.36-5.38,4.97-9.52,3.88-7.46-4.98-11.04-15.01-8.87-25.05,1.02-4.74,2.54-9.39,5.53-13.2,9.25-11.76,12.75-25.62,15.15-39.94.21-1.29.66-2.53,1-3.8,3.19-2.56,2.74-6.61,3.84-9.96,3.24-9.88,8.03-18.83,14.3-27.11,5.9-7.81,10.37-16.59,15.97-24.62,1.03-1.48,1.69-3.34,3.99-3.22.65,1.33,1.31,2.66,1.96,4,3.15.93,3.16,4.07,4.46,6.3-1.09,5.91-3.95,11.15-7.68,15.58-8.81,10.48-13.71,23.46-22.34,33.99-1.79,2.19-1.66,4.94-2.26,7.48-1.61,2.03-2.55,4.3-3.21,6.86-2.26,8.83-7.36,16.2-12.61,23.45-3.64,5.02-6.34,10.33-5.82,17.52,2.6-2.09,3.06-4.69,4.5-6.61,1.43-1.89,2.45-4.63,5.76-3.44,1.86,1.25,2.76,2.74,1.18,4.82-1.35,2.64.56,2.67,2.24,2.66,2.99-.02,5.93.16,8.67,1.52Z"/>
      <path class="cls-80" d="M62.3,147.74c3.19,1.87,3.94-1.39,5.1-2.81,4.01-4.9,7.88-9.9,12.56-14.2,1.21-1.11,2.39-2.86,4.22-2,3.35,1.57,4.98-.35,6.49-2.7,5.53-8.61,13.95-12.92,23.26-16.25,15.47-5.53,31.24-10.42,45.48-18.93.38-.36.81-.64,1.3-.84,7,1.82,7.93,4.27,3.06,9.17-4.45,4.48-8.11,9.66-12.81,13.88-1.55,1.39-2.96,3.42-5.53,1.83-2.71-1.22-5.46-1.07-8.32-.5-25.25,5.07-44.91,18.21-59.28,39.75-4.18,6.27-7.91,12.68-11.34,19.33-.76,1.47-1.67,2.88-2.67,4.2-.7.93-1.71,1.79-2.99,1.35-1.33-.46-1.34-1.78-1.38-2.95-.1-2.83-.17-5.66-.25-8.48.17-6.75.95-13.41,3.1-19.85Z"/>
      <path class="cls-75" d="M341.2,482.59c10.21-7.12,21.14-12.75,31.12-20.03,17.92-13.07,28.11-30.04,29.18-52.56.55-11.63,1.32-23.27,1.53-34.9.27-14.92,3.59-29.37,5.57-44.03,1.09-8.06,2.12-16.19.65-24.36-.17-.96-.13-1.98-1.51-3.1-3.8,5.82-6.87,12.07-13.17,15.79,1.59-2.63,3.2-5.23,4.75-7.88,4.46-7.64,8.99-15.25,8.87-24.56-.02-1.65.27-3.85,2.49-3.54,2.23.31,1.78,2.66,1.5,4.15-.67,3.56-1.7,7.04-2.62,10.72,2.32.63,2.05-3.71,4.1-2.2,1.68,1.24,1.39,3.63,1.45,5.62.24,7.33-1.26,14.54-1.34,21.93,6.22-19.82,12.09-39.73,20.39-58.88-2.9,10.99-5.68,22.01-8.73,32.96-5.28,18.92-10.77,37.78-16.1,56.69-2.46,8.73-3.14,17.59-2.3,26.68,1.65,17.94-1.12,35.52-4.91,52.99-1.61,7.41-.94,14.92-.56,22.4.1,1.88.59,3.71-2.09,4.21-10.26,1.88-19.47,6.76-29.13,10.32-9.8,3.62-19.42,7.72-29.13,11.62Z"/>
      <path class="cls-39" d="M299.98,98.9c1.13-.62,1.9-1.54,2.26-2.78,9.36,3.33,19.11,5.21,28.75,7.46,3.81.89,7.54,0,11.24-.9.87,5.94-1.66,10.09-5.83,14.35-11.91,12.15-22.29,25.68-33.09,38.82-2.41-.05-2.42-2.15-2.98-3.64-2.53-6.73-4.9-13.51-9.01-19.54-4.88-7.16-4.45-10.07,1.95-16.07.78-.73,1.08-1.63,1.46-2.53.94-1.32,2.62-2.21,2.47-4.18,2.2-2.87,1.92-6.09,1.31-9.36.29-.73.86-1.21,1.48-1.64Z"/>
      <path class="cls-29" d="M487.02,445.89c-2.61.24-5.21.48-7.82.71-2.5-1.26-2.94-3.04-1.33-5.32,1.18-1.84,3.31-1.74,5.04-2.51,2.52-1.11,5.87-1.4,6.19-5.2,5.14-2.25,8.73-6.14,10.67-11.25,2.43-6.43,5.78-12.32,9.47-18.04,5.05-7.82,8.15-16.29,9.12-25.55.67-2.73,2.4-4.64,4.79-2.34,4.32,4.15,8.82,8.49,8.1,15.42,0,1.33-.15,2.68.02,3.99.62,4.76-1.38,7.57-6.01,8.78-4.2,1.1-5.75,3.21-2.27,6.96.65.7,1.3,1.72,1.35,2.63.72,12.44,4.77,25.05-1.96,37.13-1.64,2.95-3.55,5.03-8.14,4.92,3.17-3.47,5.79-6.28,7.61-9.77,2.95-5.65,2.33-11.25.72-16.98-.25-.91-.48-2.22-1.74-2.01-.61.1-1.21,1.07-1.55,1.77-.65,1.34-1.47,2.75-1.59,4.18-.57,6.69-4.75,10.58-10.37,12.9-6.87,2.84-10.85,8.59-15.35,13.89-.52.61-1.11,1.45-1.11,2.19-.02,7.26-5.4,9.8-10.56,13.14-8.67,5.63-15.29,13.59-22.18,21.49-1.5-2.28-.24-4.42,1.51-6.18,4.22-4.25,8.25-8.84,13.05-12.32,3.37-2.44,5.36-5.14,6.3-8.95,3.54-1.91,6.58-4.11,5.21-8.89,7.68-7.32,15.34-14.66,23.05-21.95,1.86-1.75,4.08-3.16,5.41-5.87-2.7-.08-4.34,1.97-6.59,1.61-5.95,1.58-10.53,5.57-15.48,8.88-1.2.8-2.01,2.18-3.56,2.51Z"/>
      <path class="cls-19" d="M241.3,187.83c-7.5,12.18-19.04,18.11-32.55,20.84-3.41.69-6.92.9-10.4,1.18-3.25.26-5.62,1.74-7.38,4.45-2.52,3.89-5.15,7.71-7.74,11.57-4.3-.29-8.3.54-11.24,3.92-2.31,2.65-4.77,2.64-7.46.98-4.75-2.93-9.45-5.95-14.17-8.93-2.06.58-2.92-.27-3.33-2.32-1.03-5.2-1.06-10.08,2.51-14.54,4.17-5.22,9.63-8.6,15.44-11.57,1.64-.84,3.27-.08,4.9-.19,3.41-.25,5.32,2.63,8.02,3.86,2.56,3.83,6.9,5.3,12.52,4.09,11.04-2.39,22-5.08,32.78-8.48,5.17-1.63,10.88-1.66,15.38-5.33.78-.64,1.92-.37,2.7.48Z"/>
      <path class="cls-91" d="M413.27,101.87c-3.88-.66-6.82-2.73-9.03-5.93-2.89-4.18-7.61-6.36-11.01-10.03-1.28-1.38-2.94-2.52-4.32-3.89-5.79-5.76-5.09-10.65,2.11-15.05,1.39-.8,2.78-.78,4.3-.28,6.13,2.03,12.54,3.15,18.48,5.78,7.72,3.42,15.78,3.82,23.86,2.06,9.26-2.02,18.39-3.6,27.49.48,5.98,5.33,8.31,12.83,12.23,19.49-2.16,1.23-2.91-.23-3.81-.99-3.04-2.59-6.11-5.12-9.75-6.85-7.13-3.38-14.04-3.31-20.85,1.02-3.81,2.42-7.43,5.07-10.5,8.35-5.32,5.69-11.45,8.34-19.2,5.86Z"/>
      <path class="cls-4" d="M269.98,238.63c3.89,2.26,4.37,5.82.62,8.98-3.14,2.64-5.27,5.85-7.45,9.19-3.77,5.77-9.4,9.29-15.69,11.73-10.15,3.95-19.67,9.58-30.84,10.84-5.98.67-3.58,6.09-4.48,9.58-4.26-.83-4.99,2.99-6.65,5.31-1.4,1.94-2.16,4.34-3.2,6.54-1.85,3.45-3.94,2.68-6.24.44-.95-.93-1.67-3.06-3.43-1.86-1.36.93-.69,2.75-.37,4.17.78,3.41,2.36,6.48,4.22,9.42,1.14,1.81,2.37,3.57,2.72,5.76,0,.17.07.35.01.49-.77,1.98-1.3,4.99-3.15,5.23-2.09.27-2.85-2.79-3.97-4.53-10.58-16.4-17.12-34.4-21.06-53.42-.3-1.45-1.07-3.05.35-4.18,1.37-1.09,2.92-.26,4.21.43,1.89,1.02,3.73,2.17,5.45,3.45,2.26,1.69,4.38,3.57,6.55,5.37,14.78,12.3,15.27,12.29,28.7-.79,10.05-2.33,19.83-5.46,29.4-9.32,3.19-1.29,5.97-3.24,8.71-5.27,1.58-1.17,1.93-2.74,1.9-4.52.53-2.84,4.28-3.18,4.71-6.09-.29-1.67-.56-3.33.07-4.98,2.83-1.28,5.84-1.74,8.9-1.97Z"/>
      <path class="cls-5" d="M9.5,348.69c9.32-6.62,17.7-14.56,27.93-19.89,2.13,3.34,4.4,6.6,6.37,10.03,3.24,5.63,1.04,10.49-2.49,15.06-1.22,1.63.39,3.38-.21,5.04-.15.3-.33.72-.59.75-9.37.94-10.73,8.8-13.34,15.51-1.16,3-1.44,6.44-4.52,8.4-2.33.32-3.09-1.28-3.86-3.03-.49-1.13-.87-2.91-2.58-2.37-1.46.46-1.23,2.16-1.34,3.45-.33,3.83.53,7.53,1.15,11.27.32,1.92,1.05,3.88-.41,5.69-2.91,2.18-1.89,5.67-2.8,8.51-.72,2.26-1.05,4.63-4.36,3.62-3.21-7.23-4.26-14.96-5.32-22.7-1.68-12.24-2.08-24.55-1.96-36.89.01-1.4-.39-2.93.85-4.55,1.79,3.91,3.29,7.71,5.25,11.25,1.07,1.92,1.92,5.25,5.41,3.41,2.57-1.36,3.02-6.45.87-8.87-1.2-1.35-2.68-2.46-4.04-3.68Z"/>
      <path class="cls-88" d="M57.57,527.64c-1.78-5.72-2.06-11.8-2.73-17.59-.62-5.4,3.4-10.82,5.63-16.13.69-1.65,2.11-3.04,1.63-5.07,1.24-3.14,3.62-3.56,6.52-2.74,1.28.36,2.59.72,3.71,1.44,6.79,4.31,12.63,2.54,17.98-2.69,9.24,2.49,18.72,3.1,28.21,3.72-.37,3.12-4.65,2.05-5.26,4.92-3.06,1.28-5.94,2.62-7.04,6.29-.48,1.6-2.49,2.03-3.92,2.84-.05,1.32-.13,2.64-.14,3.96-.08,7.72-2.59,9.56-10.22,7.57-1.53-.4-3.35-1.95-4.62-.54-1.58,1.75.91,3.12,1.35,4.74.48,1.78,2.48,3.33.7,5.4-3.79,1.69-7.13,1.25-9.98-1.98-.98-1.11-2.17-2.03-3.54-2.67-5.92-2.78-9.82-1.29-12.73,4.87-1.1,2.33-1.79,5.34-5.55,3.68Z"/>
      <path class="cls-3" d="M24.35,311.76c-.69-1.35-1.37-2.7-2.06-4.05-1.17-1.5-1.12-3.11-.21-4.64,5.87-9.91,7.43-21.21,10.41-32.05,7.44-6.28,11.29-15.04,15.42-23.41,3.48-7.06,7.61-13.5,12.4-19.66,3.42-4.39,5.37-9.37,4.04-15.13-.96-2.25-1.8-4.54-1.98-7.02,3.21-6.75,5.63-14.06,12.83-17.95.19,6.99-.33,14.06,2.27,20.8-4.4,7.47-7.04,15.32-5.22,24.13.42.7.12.98-.6,1.03-7.79,4.88-11.38,12.82-14.28,20.89-2.67,7.41-6.07,14.32-10.49,20.76-4.6,6.7-5.8,14.75-8.76,22.09-1.83,4.55-3.46,8.42-8.75,9.32,1.26,1.59,4,.49,5.15,3.25-3.49.56-6.83,1.1-10.18,1.64Z"/>
      <path class="cls-71" d="M8.44,410.72c1.75-1.35,1.74-3.37,2.11-5.29.55-2.87.85-5.9,3.74-7.64,2.59-.44,3.5,1.41,4.25,3.27,4.28,10.59,10.92,19.89,16.28,29.88,5.05,8.07,10.68,15.82,13.73,25,3.89,8.62,8.28,16.99,12.36,25.52.92,1.93,2.84,4.03.43,6.28-4.09.69-1.95,5.28-4.49,7.08-2.29-.85-4.71-4.44-6.87-2.29-2.77,2.77,1.21,6.33.85,10.28-3.08-4.23-4.17-8.76-5.29-13.1-4.67-18.22-12.76-34.83-22.55-50.77-5.55-9.03-11.45-17.91-14.55-28.21Z"/>
      <path class="cls-53" d="M269.24,95.55c-1.61,3.14-4.13,5.34-7.56,5.93-4.35.75-6.6,3.25-7.44,7.36-3.37.68-3.58-2.15-4.35-4.12-1-2.52-1.19-5.19-.59-7.87-.6-3.93,2.64-5.16,4.96-7.04-7.04-7.82-15.85-10.49-26.11-8.98-6.36-2.82-10.32-6.95-9.43-14.66.46-3.98.63-8.24-1.72-11.96.56-6.38.67-12.79,1.43-19.15,2.01-1.81,3.04-5.28,6.84-4.13,12.31,18.61,22.63,38.48,35.93,56.45,2.28,3.08,3.58,7.23,8.06,8.17Z"/>
      <path class="cls-50" d="M465.14,75c-.46.18-.97.59-1.39.51-10.74-2.02-21.09,1.07-31.58,2.3-7.61.89-14.77-.9-21.83-3.82-6.1-2.51-12.49-4.35-19.1-5.15-1.55-1.37-3.08-.44-4.61.05-1.61.51-3.21,1.03-4.25-.97.2-3.55-2.56-1.94-3.83-1.86-6.11.4-12.21,1.14-18.31,1.75-.88-2.68.47-3.35,2.88-4,1.85-.5,4.33-.33,5.43-2.61.5-1.26,1.85-1.58,2.7-2.45,6.09-1.54,12.2-2.98,18.25-4.67,2.7-.75,5.26-1.98,7.89-2.99,2.98,2.47,6.31,4.31,10.06,5.28,5.22,1.35,9.73,3.98,14.19,6.96,8.9,5.96,18.5,7.66,28.71,3.47,5.84,1.09,10.59,4.13,14.78,8.2Z"/>
      <path class="cls-38" d="M303.29,289.7c0-.3-.01-.6-.02-.9,13.86,2.89,28.04,4.72,40.29,12.73,1.81,1.18,3.67,2.25,4.66,4.29.5,2.48-1.4,3.15-3.06,3.8-6,2.35-11.78,5.38-18.41,5.81-2.69.17-5.14,1.23-7.49,2.5-8.72-1.25-16.85,1.36-25.02,3.76-.68-2.34-1.35-4.67-2.03-7.01-2.09-2.72-.92-5.9-.1-8.3,1.93-5.68,2.53-12.64,10.02-14.66.96-.26,1.02-1.2,1.15-2.02Z"/>
      <path class="cls-46" d="M531.26,391.82c-2.07-4.52-5.31-8.28-8.06-12.36-1.23-1.82-2.87-2.85-4.83-.72.3-10.94-.01-21.94,1.04-32.8,2.08-21.46,11.57-39.92,24.86-56.57,1.74-2.18,3.79-4.23,6.84-4.63,2.57,2.37.37,4.29-.75,6.11-5.95,9.66-11.29,19.62-14.45,30.57-3.54,12.28-5.69,24.75-3.7,37.6-.15,1.33.79,2.31,1.15,3.48-.1,2.21-2.27,3.6-2.32,5.82-.04,1.85-1.1,4,1.45,5.1,2.59.39,2.58-1.99,3.63-3.29,1.3-1.64,1.75-4.66,5.03-3.5,3.3,2.47,7.35,4.12,9.13,8.27-2.97,4.24-8,5.75-11.82,8.88-2.86,2.34-5.52,4.72-7.2,8.04Z"/>
      <path class="cls-1" d="M170.33,194.8c-8.93,1.83-15.98,6.55-20.34,14.5-2.13,3.89-3.26,8.47.38,12.53.85,2.95,2.54,5.45,4.24,7.94-.42.96-1.06,1.38-2.09.86-3.17-3.28-5.9-6.89-8.33-10.74,1.22-1.71.73-3.39.07-5.18-2.19-5.9-3.91-12.01-6.48-17.73-2.96-6.57-1.45-12.59.99-18.68.48-1.21,1.1-2.64,2.1-3.31,4.72-3.17,9.14-6.45,12.59-11.23,2.02-2.79,5.12-2.01,6.2,1.82.68,2.39,1.12,4.84,1.67,7.26-.06,3.95,1.03,7.59,2.98,10.99,1.59,2.24,3.18,4.44,5.45,6.12,1.72,1.28,2.74,2.96.57,4.85Z"/>
      <path class="cls-91" d="M470.22,72.26c.78-4.47,5.08-5.58,7.81-8.18,16.8,11.19,27.39,26.9,32.99,46.04,4.64,15.88,5.98,32.36,7.9,48.71.25,2.13.12,4.33-1.41,6.47-2.21-1.33-2.02-3.62-2.39-5.57-3.04-15.9-7.69-31.32-12.95-46.61-5.97-17.34-16.49-30.99-31.95-40.86Z"/>
      <path class="cls-70" d="M299.31,110.87c-.68,1.32-1.36,2.63-2.04,3.95-1.93,1.4-4.28,1.89-6.36,2.97-4.69,2.43-5.43,4.64-2.76,9.63,3.68,6.85,7.88,13.43,10.76,20.7,1.42,3.59,2.52,7.31,4.36,10.73,1.24,6.35,2.49,12.69,3.7,19.05.5,2.65.33,5.29-.52,7.86-2.2,6.61-4.45,13.21-6.58,19.85-.96,2.98-2.78,5.01-5.82,3.5-2.7-1.34-5.24,3.04-7.57-.27-.02-.36-.04-.71-.06-1.07.38-9.22,4.97-17.15,8-25.54,1.96-5.41,2.28-10.55.19-16.01-4.11-10.76-9.51-20.88-14.79-31.06-.89-1.72-1.88-2.4-3.24-.49-.62.87-1.38,1.41-2.46,1.47-.92-3.01-1.98-5.99-1.86-9.21.74-3.49,1.47-6.98,2.22-10.46.47-2.19,1.47-3.95,3.77-4.64,4.92-.81,9.59-2.81,14.6-3.11,2.38-.14,5.12-.97,6.47,2.16Z"/>
      <path class="cls-49" d="M61.34,487.73c-4.97-10.36-10.73-20.35-14.9-31.09,1.42-2.86,4.28-4.14,6.62-6,4.3-.4,4.98,4.48,8.49,5.64.89-.67-.01-2.04.67-2.89,3.13-4.23,6.76-1.08,10.2-.67,5.21,7.9,6.47,17.15,8.9,26-.3,6.87,5.09,5.42,8.99,6.14-1.15,6.98-9.8,10.29-16.87,6.16-3.64-2.13-7.21-3.3-11.35-2.17-.25-.37-.5-.74-.75-1.12Z"/>
      <path class="cls-37" d="M305.16,332.93c12.33,1.23,23.64,5.07,33.29,13.1.86.71,2.18,1.46,1.76,2.75-.47,1.43-2,.87-3.07.87-8.33-.04-16.62.06-24.8,2.02-8.46,2.03-15.77,6.04-22.15,11.9-2.67,2.44-5.69,6.26-9.24,4.65-3.66-1.67-1.35-6.31-1.33-9.59.03-4.14,1.04-8.26,1.14-12.4.13-5.09,2.94-7.44,7.45-8.49,2.4,1.09,1.64,2.91.98,4.62-.88,2.31-1.9,4.58-1.97,7.19,1.59-3.4,3.09-6.82,5.89-9.49,2.87-2.72,6.27-4.2,10.01-5.1,1.07-.26,1.57-1.13,2.05-2.01Z"/>
      <path class="cls-70" d="M163.13,402.54c2.89,2.41,5.39,5.35,9.24,6.4,1.77.48,3.49.89,5.33.37,5.5-1.56,11.15-11.86,9.61-17.54.28-3.96,3.47-4.44,6.31-4.95,2.09-.37,4.51-.35,4.77,2.82.53,6.24-.85,11.51-5.96,15.91-3.71,3.2-6.43,7.53-9.64,11.32-4.43,5.25-5.99,11.13-5.06,18.02.63,4.62,2.93,9.33.41,14.08-12.02-5.82-16.45-16.4-17.46-28.76-.49-5.94.43-11.94,2.46-17.65Z"/>
      <path class="cls-80" d="M162.26,84.81c.18-9.61,4.68-16.87,11.62-23.31,6.72-6.24,13.69-12.01,21.15-17.35,5.35-3.83,9.97-8.75,12.43-15.19,3.25-3.68,7.18-6.68,10.2-10.64,1.29-1.69,1.55.34,1.73,1.37.92,2.88.21,5.23-1.64,7.69-9.08,12.03-18.22,23.99-29.88,33.72-2.14,1.79-3.32,3.88-3.05,6.7-.25,1.39-2.11,2.26-1.27,4,1.58,2.17,4.08,2.07,6.29,2.47,6.43,1.17,8.28,3.02,9.25,9.66.63,4.26,1.09,8.53,1.31,12.84-4.38,3.29-8.97,5.78-14.72,3.98-2.55-2.6-.58-4.77.67-6.99.23-1.02,1.19-1.76,1.07-2.9-1.12-3.67-3.62-5.16-7.35-5.69-5.15-.74-10.19-1.61-15.22.51-.98.41-1.96.12-2.6-.86Z"/>
      <path class="cls-32" d="M363.26,394.73c1.6-.86,3.12-1.95,4.81-2.54,3.57-1.24,5.67.04,5.13,3.99-1.93,14.2-4.18,28.27-11.44,41.06-6.82,12.01-18.23,18.97-28.98,27,4.54-9.89,9.09-19.78,13.63-29.66,4.32-4.34,5.55-10.31,8.16-15.55,2.14-4.29,3.26-9.02,5.1-13.46.75-1.83,1.46-3.89,3.18-4.95,2.76-1.71,1.18-3.08-.02-4.6-.06-.5.09-.94.43-1.3Z"/>
      <path class="cls-31" d="M455.72,201.78c6.41,7.8,12.86,15.58,19.24,23.41,14.08,17.29,29.62,33.29,44.25,50.09,1.2,1.38,2.36,2.79,3.51,4.21,4.87,6.02,5.21,6.07,11.73.51-1.71,6.1-2.92,11.09-4.56,15.94-.6,1.79-2.07.78-2.45-.42-3.32-10.51-12.59-15.61-20.18-22.15-16.62-14.33-28.99-31.93-40.01-50.66-4.02-6.84-8.4-13.47-12.62-20.19.36-.24.72-.49,1.08-.73Z"/>
      <path class="cls-64" d="M274.11,136.13c.38-2.13.76-4.26,1.16-6.39.23-1.25,0-2.93,1.81-3.11,1.62-.15,2.26,1.3,2.79,2.48,5.71,12.75,13.2,24.66,17.74,37.97,1.41,4.14,1.87,8.15.43,12.19-3.12,8.78-6.43,17.49-9.75,26.2-.33.87-1.24,1.53-1.88,2.29-1.8-4.92-3.59-9.84-5.39-14.76.47-2.94,1.23-5.78,2.4-8.54,3.09-7.23,3.1-14.6-.2-21.69-2.74-5.9-5-12.02-8.09-17.76-1.2-2.86-.84-5.91-1.03-8.89Z"/>
      <path class="cls-48" d="M367.82,242.88c.39-1.07,1.3-.97,2.07-1.08,16.26-2.18,28.06-11.11,37.51-24.08,12.43-17.05,22.26-35.51,30.95-54.65.83-1.83,1.16-5.34,3.44-4.71,2.64.74,1.5,3.97,1,6.18-.7,3.08-1.16,6.35-2.56,9.11-8.98,17.72-16.17,36.51-29.49,51.72-10.22,11.67-22.84,18.71-38.81,18.4-1.38-.03-2.99.5-4.1-.9Z"/>
      <path class="cls-55" d="M532.48,153.76c11.87,11.63,22.15,24.71,28.95,39.75,9.39,20.76,19.12,41.35,28.73,62.01.67,1.44,1.12,2.99,1.49,4.55-8.19-12.44-17.29-24.14-22.04-38.69-6.11-18.7-17.12-34.47-32.71-46.85-4.68-3.72-9.12-7.78-12.69-12.67.87-6.25,3.1-8.43,8.27-8.09Z"/>
      <path class="cls-90" d="M60.4,201.8c-4.2,10-10.5,18.84-16.75,27.49-7.68,10.63-13.4,22-17.74,34.23-.69,1.94-.88,4.21-3,5.72-.24-.97-.42-1.75-.61-2.53,2.65-20.1,9.26-38.73,20.65-55.58,5.12-7.58,10.38-15.07,14.59-23.22,1.99,4.42,1.99,9.24,2.86,13.89Z"/>
      <path class="cls-84" d="M134.59,238.22c-20.66,30.39-38.55,62.56-61.68,90.87-.6-2.26-1.57-5.57-2.35-8.92-.64-2.72.56-4.84,2.56-6.62,17.65-15.71,29.87-35.63,42.53-55.18,5.11-7.89,11.69-14.25,18.95-20.15Z"/>
      <path class="cls-41" d="M602.13,293.74c2.18,9.13,1.34,18.18-1.12,27.08-3.24,11.7-6.72,23.33-10.09,34.99-6.3,21.77-18.83,40.25-31.05,58.9-2.4,3.67-4.99,7.22-8.22,10.36,5.68-10.65,11.16-21.41,17.07-31.93,10.1-17.94,18.67-36.41,21.4-57.1.37-2.82.9-5.74,2.68-7.97,8.94-11.23,9.05-23.46,4.49-36.31,2.8-2.25,3.71.15,4.85,1.97Z"/>
      <path class="cls-20" d="M57.57,527.64c2.13-1.34,2.8-3.62,3.71-5.76,3.38-7.95,12.64-9.57,18.68-3.08,2.63,2.83,5.53,4.71,9.41,4.94-3.82,3.48-8.11,5-13.45,2.65,3.41,7.33,3.46,7.44-3.58,10.13-2.69,1.02-1.78,2.6-.83,3.83,3.62,4.71-1.94,5.69-3.55,7.42-2.04,2.19-3.56-1.2-4.6-2.76-3.48-5.23-4.82-11.26-5.78-17.37Z"/>
      <path class="cls-13" d="M479.24,441.54c-.72,1.68-.46,3.37-.04,5.06-1.61,1.82-.2,4.48-1.77,6.31-4.56-4.46-9.46-1.6-14.27-.66-4.66-1.31-9.42,2.74-8.5,7.24.82,2.41-.84,4.02-1.95,5.99,3.1-2.25,5.93-4.6,8.9-6.76,1.64-1.19,3.52-3.53,5.83-.74-1.46,6.33-5.68,10.08-11.27,13-6,3.14-10.39,7.64-9.14,15.58-2.94-6.11-7.15-11.29-10.87-16.8-1.05-1.55-1.44-3.37.05-5.03,3.66-.95,5.86-3.48,7.44-6.75,1.92-3.96,4.08-7.8,6.43-11.51,2.51-3.96,6.04-6.77,10.82-7.42,4.73-.64,9.51-1.07,14.28-.62,1.88.18,4.26.04,4.05,3.1Z"/>
      <path class="cls-74" d="M78.22,435.86c-.91.33-1.82.65-2.73.98-1.31-10.06-1.47-20.19-1.26-30.31.28-13.64-.55-27.17-3.05-40.59.75-3.4,1.99-6.23,6.35-5.33,3.61,5.49,4.6,11.7,4.77,18.08.39,14.19-.85,28.28-3.22,42.24-.85,4.99-.37,9.97-.87,14.92Z"/>
      <path class="cls-74" d="M304.17,275.56c2.73-6.71,7.8-11.02,14.66-12.67,6.38-1.53,12.98-2.11,19.59-2.09,3.4,2.59,6.91,5.66,5.83,10.17-.98,4.11-5.49,4.84-9.16,5.93-5.93,1.77-11.81,1.26-17.71-.22-4.33-1.08-8.65-2.61-13.21-1.13Z"/>
      <path class="cls-6" d="M554.13,381.69c.38.38.76.76,1.15,1.14-6.08,14.43-10.69,29.4-15.83,44.17-.67,1.93-1.2,3.76-3.22,4.77-3.46,1.73-5.35.84-5.87-3.01-.38-2.8-.49-5.64-.88-8.44-1.06-7.71.44-14.12,7.92-18.28,4.82-2.69,7.55-7.37,9.77-12.33,1.5-3.35,3.04-6.75,6.97-8.02Z"/>
      <path class="cls-23" d="M602.13,293.74c-1.62-.66-3.23-1.31-4.85-1.97-3.07-1.24-4.1-3.46-4.33-6.8-.52-7.64-4.18-13.19-12.03-15.22-5.54-1.43-8.62-5.01-10.03-10.54-1.12-4.4-2.88-8.64-4.6-13.69,20.57,10.53,33.63,25.39,35.84,48.22Z"/>
      <path class="cls-28" d="M102.31,502.62c1.59-3.29,3.02-6.68,4.82-9.85,1.5-2.64,3.45-2.94,5.22-.05,1.7-2.31,3.77-1.24,5.75-.57,4.09,1.4,8.17,2.32,12.37.43,6.75,5.74,9.66,14.06,14.1,21.33,1.47,2.4-1.9,5.71-5.58,5.42-1.91-.15-3.76-1.1-5.64-1.69-.25.05-.5.1-.75.15-3.42-1.15-5.04-3.71-5.56-7.13,1.44-2.04,1.77-3.58-1.57-3.48-2.04-.24-2.56-2.5-4.23-3.22-2.84-1.22-5.72-2.93-8.48.17-.49.93-1.38,1.17-2.3,1.35-2.72-.94-4.92-3.33-8.14-2.87Z"/>
      <path class="cls-62" d="M531.34,359.7c-4.23-15.86-1.03-31,4.39-45.94,3.77-10.4,9.97-19.5,15.38-29.03.7-.65,1.4-1.3,2.1-1.94,4.84-1,4.33,2.43,3.82,5.1-.55,2.91-2.09,5.62-3.68,8.11-5.04,7.92-7.05,17.46-13.3,24.71-3.96,9.64-5.16,19.93-6.96,30.07-.78,2.27-.18,4.62-.38,6.92-.08.91.25,2.13-1.37,1.99Z"/>
      <path class="cls-68" d="M275.14,145.02c1.75-.79,2.45.44,3.03,1.66,2.61,5.55,6.05,10.7,8.06,16.55,3.73,10.88,2.38,20.87-5.2,29.78-2.26-4.36-3.95-8.76-3.72-13.91.51-11.42-2.23-22.67-2.17-34.08Z"/>
      <path class="cls-10" d="M152.52,230.63c.7-.29,1.39-.57,2.09-.86,11.59,13.49,25.42,23.25,43.32,26.51,4.94.9,9.78-.59,15.05-.23-9.27,6.64-27.25,9.45-38.8-.77-8.28-7.33-15.04-15.92-21.66-24.66Z"/>
      <path class="cls-4" d="M281.42,400.64c-1.63.66-3.26,1.31-4.89,1.97-2.75-6.87-.43-13.32,1.72-19.75.76-2.28,3.09-2.87,5.04-3.71,12.12-5.24,23.6-2.23,34.92,2.78-3.8,4.93-9.59,5.38-15,6.69-1.6.38-3.66.15-4.75,1.08-4.38,3.77-8.12,2.55-11.84-.85-2.17-1.74-.84-3.15.52-4.42,1.71-1.59,3.79-2.64,6.08-3.67-7.8,1.02-10.56,3.74-11.28,11.3-.27,2.85-.59,5.71-.51,8.59Z"/>
      <path class="cls-54" d="M479.24,441.54c-6.54-1.67-13.11-1.29-19.62.06-3.72.77-6.95,2.94-8.41,6.42-2.51,5.96-7.05,11.11-7.14,18.1-.03,2.43-1.93,2.91-3.93,1.61-1.38-.89-2.63-1.99-3.93-3,4.59-8.8,10.75-16.55,16.69-24.42,1.87-2.48,5.24-2.74,8.16-3.19,9.31-1.45,18.61-3.05,28.04-3.55,3.59.63,3,2.52,1.07,4.33-3.03,2.86-6.81,3.86-10.94,3.63Z"/>
      <path class="cls-72" d="M262.35,337.71c-8.35,6.44-17.91,8.02-28.11,6.87-2.86-.32-5.52-1.22-6.92-4.1-.83-3.95,2.49-3.5,4.2-4.24-2.69-1.45-6.73,3.15-9.28-1.63.03-.56.07-1.12.1-1.67,10.73-.9,21.43-1.98,32.23-1.33,4.19.26,6.96,1.8,7.77,6.1Z"/>
      <path class="cls-82" d="M540.05,320.73c2.48-9.78,7.54-18.43,11.86-27.41,1.01-2.1,2.14-4.16,2.87-6.36.53-1.59,1.47-3.75-1.58-4.16,6.18-3.54,12.8-5.23,19.93-4.85-2.08,6.24-7.25,10.19-11.48,14.65-5.75,6.06-11.23,12.05-13.99,20.15-1.26,3.71-3.7,6.64-7.62,7.98Z"/>
      <path class="cls-4" d="M301.32,245.06c1.3,2.86,2.74,5.67,3.87,8.6,2.4,6.21-.33,10.03-6.96,10.16-3.32.06-6.15-.98-8.8-2.89-1.32-.95-2.46-2.41-4.24-2.46-1.75-.05-3.93.83-3.81-2.22.09-2.31-1.01-5.12,2.75-5.91,2.35-.49,2.99-2.39,2.57-4.66-.48-2.61-.95-5.22-1.42-7.84,3.38.4,6.76.79,10.14,1.19,1.31,1.4.96,2.73-.26,3.91-2.51,2.43-3.12,5.36-2.39,8.75.53-2.59,1.49-4.91,3.53-6.59,1.62-1.33,3.32-2.37,5.01-.05Z"/>
      <path class="cls-60" d="M319.28,317.93c-.15-3.53,2.28-4.64,5.06-4.78,8.61-.42,16.05-4.5,23.9-7.33,2.75,9.87-4.59,18.18-14.97,16.78-4.92-.66-9.52-2.52-13.98-4.67Z"/>
      <path class="cls-78" d="M266.03,301.71c-1.89.02-3.54.79-5.21,1.56-7.22,3.34-14.41,3.72-21.49-.45-1.14-2.16.49-2.9,1.93-3.67,1.29-.69,2.72-1.06,4.09-1.58,5.22-1.99,5.28-2.13,2.73-6.96,5.94-1.53,11.78-1.19,17.36,1.32,2.46,1.11,4.43,3.1,4.84,5.9.46,3.09-3.24,2.13-4.26,3.89Z"/>
      <path class="cls-71" d="M256.5,373.49c-3.89,5.57-9.55,8.9-15.22,12.33-7.93,4.8-14.87,1.33-21.92-2.02-1.55-2.53.12-4.11,1.86-5.33,3.09-2.18,6.41-3.99,10.43-3.58,3.49,3.42,7.34,2.89,11.1.69,2.7-1.58,5.52-2.76,8.49-3.65,2.03-.38,3.66.55,5.27,1.58Z"/>
      <path class="cls-62" d="M363.26,396.2c2.29-.6,4.58-.58,7.03-.22-.11.64-.03,1.35-.29,1.52-6.67,4.26-9.12,11.02-11.3,18.13-1.71,5.56-4.29,10.83-7.74,15.59-1.15,1.59-2.11,3.49-4.56,3.36,2.04-6.49,3.91-13.01,4.96-19.75.75-2.32.77-4.78,1.31-7.14,1.34-5.87,4.41-10.1,10.59-11.49Z"/>
      <path class="cls-62" d="M266.22,244.96c-1.2,3.95-5.52,4.36-7.9,6.98-4.07,5.82-10.06,8.4-16.71,9.85-6.8-1.36-7.44-3.32-3.65-11.09,3.36-3.54,7.15-6.32,12.13-7.05,5.47-.76,10.9-.97,16.12,1.32Z"/>
      <path class="cls-4" d="M333.24,255.94c-9.52,6.82-21.27,3.04-24.66-7.89-.68-2.2-1.59-4.33-2.39-6.49-.54-.7-.49-1.39.05-2.07,1.57-.84,2.33.23,3.09,1.31,8.54,4.14,17.11,8.24,23.91,15.14Z"/>
      <path class="cls-9" d="M183.27,67.59c-.32-7.32,5.35-10.69,9.93-14.58,9.99-8.48,17.63-18.89,24.93-29.59.71-1.04.85-2.48,1.25-3.74,1.3,4.09,3.81,7.55,5.87,11.24-1.75,1.38-3.5,2.76-5.25,4.15-2.94.03-4.66,1.61-6.25,4.04-6.22,9.5-13.91,17.79-22.38,25.29-2.06,1.83-4,5.81-8.11,3.19Z"/>
      <path class="cls-51" d="M370.27,61.86c-.3,2.29-2.06,2.74-3.9,3.11-2.27.46-4.58.83-6.12,2.85-8.57,1.66-17.14,3.3-25.85,4.12-1.8.86-2.86-.04-3.42-1.62-.49-1.39.08-2.53,1.19-3.49,4.1-3.55,8.8-5.78,14.19-6.38,7.21-.81,14.46,1.13,21.69-.27,1.1-.21,1.67.85,2.22,1.68Z"/>
      <path class="cls-21" d="M242.29,258.93c5.95-.93,10.66-4.73,16.03-6.99-.63,5.74-4.83,8.65-9.34,10.82-7.8,3.76-16.14,6.17-24.43,8.6-2.71.79-5.6.87-8.26-.58,1.63-2.36,3.65-4.35,5.91-6.11,1.12.05,2.25-.25,3.07-.85,5.1-3.71,10.92-4.74,17.02-4.9Z"/>
      <path class="cls-7" d="M463.25,450.76c1.56-.93,3.08-1.96,4.7-2.78,5.05-2.58,8.51-.76,9.48,4.94-2.68,2.97-7.13,2.45-9.98,5.07-6.99,3.77-12.44,9.74-19.75,14.1.59-5.04,3.64-8.38,5.65-12.18.53-4.32,4.94-8.39,9.9-9.14Z"/>
      <path class="cls-83" d="M248.08,290.6c.65.08,1.31.11,1.95.24,1.77.36,4.5-1.2,5.11,1.36.59,2.47-1.54,4.39-3.6,5.41-3.96,1.96-8.13,3.49-12.22,5.2-5,1.24-9.35,4-14.01,6.01-3.03-1.77-3.34-2.89-.87-5.84,3.85-4.61,8.13-8.78,13.88-11.05,3.25-.45,6.51-.89,9.76-1.34Z"/>
      <path class="cls-24" d="M199.19,318.72c-6.26-3.89-11.24-14.92-10.08-22.33.18-1.13.25-2.4,1.56-2.86,1.31-.45,2.2.48,2.99,1.29,1.38,1.41,2.72,2.87,3.99,4.38,1.25,1.49,2.56,2.63,4.64,1.59.66,6.27-1,12.14-3.1,17.93Z"/>
      <path class="cls-12" d="M305.16,332.93c1.57.85,3.15,1.7,6.16,3.32-6.99,1.03-12.78,1.69-17.03,6.14-4.2,4.4-4.7,10.51-7.7,16.39-3.12-5.42-2.51-10.23-.9-15.17.67-2.05,2.52-3.57,2.52-5.89,5.02-3.85,10.51-6.01,16.96-4.79Z"/>
      <path class="cls-68" d="M282.31,205.8c-1.25,3.48.02,6.87.57,10.23.51,3.09-.14,5.06-3.2,6.24-3.38,1.31-6.58,3.1-10.28,3.45.87-9.11,4.96-16.83,10.08-24.15,1.95,1.01,1.72,3.03,2.83,4.22Z"/>
      <path class="cls-22" d="M238.32,291.94c-3.54,3.65-7.12,7.27-10.6,10.97-1.53,1.63-3.56,3.16-2.41,5.92-1.86,1.34-3.72,2.69-5.6,4-1.03.72-2,2.02-3.45,1.09-1.1-.71-.96-2.03-.92-3.16.18-5.01,1.72-9.36,6.28-12.11,1.55-.94,3.21-1.74,3.75-3.69,4.24-1.32,8.39-3.01,12.94-3.02Z"/>
      <path class="cls-87" d="M382.38,67.93c2.99-.04,6.48-4.93,8.86.92-5.5,6.15-5.45,7.02.5,12.94,3.62,3.61,7.21,7.25,10.78,10.91.86.89,2.29,1.55,1.74,3.23-1.97-1.18-3.93-2.37-5.9-3.56-2.66-1.6-4.29-5.03-8.11-4.52-1.72-4.89-6.37-7.39-9.28-11.33-3.68-4.96-3.76-5.24,1.43-8.6Z"/>
      <path class="cls-77" d="M173.54,452.51c4.3,3.85,7.54,8.49,10.22,13.73-8.76-4.13-17.44-8.11-25.36-13.54-1.36-.93-1.97-2.19-1.67-3.86.85-4.72,1.46-9.51,4.06-14.74,1,2.31,1.73,4.01,2.46,5.7-.32,8.84,3.36,13.39,10.29,12.71Z"/>
      <path class="cls-2" d="M275.21,97.82c-1.92-1-3.85-1.99-5.77-2.99-1.36-3.39-2.86-6.74-4.02-10.2-.64-1.91-.36-3.27,2.42-2.28,7.78,2.75,8.41,2.3,9.89-5.97.31-1.75.67-3.49,1.48-5.15,2.02,9.35.11,18.13-3.99,26.59Z"/>
      <path class="cls-36" d="M110.44,505.5c.3-.7.61-1.39.91-2.09,4.41-1.52,9.86.37,13.06,4.87,1.57,2.21,3.12,4.44,4.68,6.67,1.07,1.53,2.31,2.72,4.29,2.81,0,0-.05-.11-.05-.11,1.34,3.3,1.92,6.58-.41,10.73-2.88-7.39-8.12-11-15.06-12.42-2.75-.56-3.48-2.97-4.06-5.2-.57-2.18-1.4-4.04-3.36-5.26Z"/>
      <path class="cls-69" d="M532.48,153.76c-3.53,1.91-5.39,5.52-8.27,8.09-5.14-7.13-6.69-15.13-5.85-24.58,5.02,5.86,9.57,11.18,14.12,16.49Z"/>
      <path class="cls-85" d="M306.01,239.95c.06.53.12,1.07.18,1.6-2.08.53-3.41,2.11-4.87,3.51-3.83,1.38-5.7,4.1-6.23,8.15-.3,2.29-.39,4.86-2.28,7.21-2.6-3.89-2.45-7.93-3.13-11.76-.88-4.94,3.86-6.4,5.74-9.62,2.95-.05,5.9-.09,8.85-.14.79,0,1.4.29,1.73,1.04Z"/>
      <path class="cls-90" d="M195.22,345.64c-5.56-4.1-6.54-10.57-7.36-16.52-.53-3.88,3.39-.67,5.18-1.23,3.35,3.39,5.96,7.23,7.3,11.85-2.79,1.02-4.55,2.94-5.12,5.89Z"/>
      <path class="cls-3" d="M251.23,371.91c-2.34,3.35-5.7,5.42-9.34,6.93-3.54,1.46-7.07,1.69-9.59-2.08.02-3.4-4.86-1.92-5.07-5.1,4.51-2.39,9.47-1.63,14.27-2.04,3.45-.1,6.59,1.09,9.74,2.3Z"/>
      <path class="cls-82" d="M460.59,141.82c-11.34-3.06-22.17-6.93-26.53-19.61,8.76,6.62,17.63,13.09,26.53,19.61Z"/>
      <path class="cls-45" d="M370.27,61.86c-9.82-.12-19.67-.74-29.4,1.05-2.58.47-5.02,1.71-6.85,3.74-1.65,1.83-2.26,3.71.37,5.3-3.43,1.14-6.92,2-11.96,1.94,6.71-6.95,13.17-12.09,21.79-14.05,5.41-.86,10.83-.6,16.25-.12,3.7.88,7.17-.77,10.78-.96-.33,1.03-.66,2.07-.98,3.1Z"/>
      <path class="cls-84" d="M421.95,254.62c-4.27,6.45-10.68,9.76-17.48,12.45-1.76.69-3.9.64-4.72-1.44-.97-2.47,1.01-3.8,2.9-4.42,6.43-2.11,12.84-4.24,19.3-6.6Z"/>
      <path class="cls-40" d="M130.46,492.59c.28,4.16-1.76,5.27-5.47,4.12-4.22-1.31-8.43-2.66-12.64-3.99-.18-4.71,3.71-3.36,6.17-4.15,4.53-.29,8.7.47,11.94,4.02Z"/>
      <path class="cls-63" d="M242.29,258.93c-4.52,1.88-9.06,3.73-13.57,5.65-2.19.94-4.32,1.62-6.52.09,4.85-5.11,9.64-10.29,15.76-13.97.64.87.78,1.82.36,2.8-1.75,4.07.14,5.46,3.97,5.43Z"/>
      <path class="cls-25" d="M297.73,372.91c13.59-4.1,25.53,1.26,37.53,6.41-12.62-1.38-24.65-6.36-37.53-6.41Z"/>
      <path class="cls-57" d="M388.43,88.71c-1.27.96-2.52.36-3.73-.11-5.95-2.34-11.9-4.68-17.81-7.11-1.11-.46-2.87-.76-2.45-2.52.33-1.36,1.97-.81,2.96-1.27,8.5.83,15.61,4.29,21.02,11.01Z"/>
      <path class="cls-42" d="M376.66,366.6c-4.35,6.85-8.68,13.71-13.07,20.53-.53.82-1.29,1.54-2.07,2.15-1.01.78-2.12,2.01-3.49.9-1.14-.92-.29-2.17.04-3.24.7-2.28,2.17-4.14,3.73-5.86,4.57-5.05,9.24-10.03,13.86-15.03.34.18.67.37,1.01.55Z"/>
      <path class="cls-8" d="M547.26,433.15c-1.73,13.99-10.92,24.95-15.27,37.92,3.42-13.29,7.28-26.4,15.27-37.92Z"/>
      <path class="cls-73" d="M487.02,445.89c-.01-2.49,1.04-4.39,3.1-5.81,4.36-2.99,9.1-5.25,14.02-7.13,1.35-.52,2.78-.82,1.92,1.55-3.75,3.91-7.91,7.32-12.4,10.33-1.98,1.32-4.09,2.84-6.65,1.07Z"/>
      <path class="cls-12" d="M173.54,452.51c-.95,3.98-3.12,4.1-6.21,2.13-6.36-4.06-7.97-9.77-4.08-14.84,3.43,4.24,6.86,8.47,10.29,12.71Z"/>
      <path class="cls-44" d="M77.53,360.62c-2.12,1.78-4.23,3.55-6.35,5.33-1.76-6.27-3.51-12.55-5.27-18.82.46-.24.92-.48,1.38-.72,4.65,3.75,7.55,8.9,10.24,14.21Z"/>
      <path class="cls-56" d="M511.87,448.23c-3.48,5.35-6.94,10.72-10.46,16.03-.59.89-1.83,1.43-2.45.33-.75-1.31-2.87-2.47-1.67-4.26,3.56-5.3,6.9-10.95,14.58-12.11Z"/>
      <path class="cls-4" d="M215.32,289.65c0-.97,0-1.95,0-2.92,10.08.21,19.67-4.23,29.92-2.92-9.73,3.19-19.38,6.66-29.92,5.84Z"/>
      <path class="cls-81" d="M232.37,222.95c6.21-6.82,11.71-14.31,19.02-20.09-2.38,10.45-7.71,18.11-19.02,20.09Z"/>
      <path class="cls-17" d="M367.25,306.8c-4.4-6.34-3.09-13.44,2.98-16.06,3.48-.26,4.52,1.28,3.19,4.44-1.22,2.91-1.75,6.06-3.23,8.88-.69,1.3-.75,3.1-2.93,2.74Z"/>
      <path class="cls-74" d="M391.91,293.31c4.56-8.5,6.55-16.64,10.39-25.26,1.91,6.2-3.67,19.26-10.39,25.26Z"/>
      <path class="cls-25" d="M487.34,485.04c-2.9,7.13-8.04,12.45-13.57,17.45-.86.78-2,1.56-3.06.42-1.16-1.26.03-2.22.9-2.85,5.9-4.31,10.75-9.69,15.73-15.02Z"/>
      <path class="cls-39" d="M306.01,239.95c-.58-.35-1.15-.7-1.73-1.04,2.13-1.48,2.5-3.28,1.12-5.51-1.53-2.48-2.97-5.01-4.73-8,7.94,3.43,10.23,7.74,8.66,15.4-1.11-.28-2.22-.56-3.33-.85Z"/>
      <path class="cls-91" d="M363.26,396.2c-5.83,2.69-8.17,7.9-9.92,13.58-.53,1.72-1.31,3.37-1.97,5.06-.43-12.98.77-15.02,11.89-20.11,0,.49,0,.98,0,1.47Z"/>
      <path class="cls-2" d="M233.85,33.16c8.9,2.41,7.09,10.05,10.02,14.81-4.24-3.87-7.55-8.34-10.02-14.81Z"/>
      <path class="cls-86" d="M367.25,306.8c1.65-3.56,3.21-7.17,4.99-10.66,1.37-2.69.56-4.31-2.01-5.4,1.51-1.16,3.13-1.25,4.46.09,1.13,1.13.14,2.47-.18,3.7-.97,3.82-2.15,7.61-2.89,11.47-.86,4.51-2.38,3.49-4.37.8Z"/>
      <path class="cls-23" d="M563.43,274.6c-5.79,3.08-11.91,5.53-17.07,10.24,2.72-6.9,10.19-11.62,17.07-10.24Z"/>
      <path class="cls-56" d="M102.77,526.4c6.1,5.78,12.59,11,20.52,14.1-6.1.34-18.54-8.16-20.52-14.1Z"/>
      <path class="cls-58" d="M484.19,460.7c1.86,1.44,3.95,3.12,2.44,5.63-1.61,2.69-4.03,4.69-7.65,3.26,1.16-3.3,3.16-6.11,5.21-8.89Z"/>
      <path class="cls-59" d="M486.5,508.05c5.69-5.22,11.82-9.64,19.71-10.94-6.58,3.62-13.12,7.32-19.71,10.94Z"/>
      <path class="cls-91" d="M138.66,533.95c-1.19,3.23-2.05,5.65-2.98,8.04-.45,1.15-.65,2.96-2.52,2.18-1.27-.54-1.84-1.98-1.46-3.38.87-3.24,3.12-5.17,6.96-6.84Z"/>
      <path class="cls-52" d="M266.22,244.96c-5.35-.78-10.88.75-16.12-1.32,3.46-1.75,7.19-2.53,10.99-3.05,1.12,2.15,3.35,3,5.14,4.36Z"/>
      <path class="cls-76" d="M57,315.12c4.35,2.66,6.84,6.6,7.31,11.83-3.74-3.04-5.26-7.57-7.31-11.83Z"/>
      <path class="cls-89" d="M106.91,550.64c-7.45-2.04-13.62-6.58-20.22-10.28,7.43,2.09,13.7,6.43,20.22,10.28Z"/>
      <path class="cls-60" d="M92.4,556.83c-6.36-.59-12.4-2.57-18.26-5.17,6.46.24,12.31,2.79,18.26,5.17Z"/>
      <path class="cls-20" d="M499.59,479.52c-1.53-.18-1.5-1.26-1.39-2.21.3-2.64,2.08-3.94,4.49-4.48.89-.2,1.82.2,1.4,1.27-.9,2.3-2.25,4.32-4.5,5.42Z"/>
      <path class="cls-86" d="M368.13,325.12c5.46,2.02,5.45,6.02,7.27,10.52-3.93-3.09-5.55-6.08-7.27-10.52Z"/>
      <path class="cls-26" d="M382.89,217.2c1.52.09,2.56.72,2.5,2.4-.05,1.51-.9,2.54-2.38,2.76-1.56.23-2.57-.69-2.77-2.19-.25-1.88,1.02-2.63,2.64-2.97Z"/>
      <path class="cls-67" d="M179.26,231.82c1.49.15,2.39.93,2.23,2.57-.17,1.72-1.19,2.73-2.94,2.69-1.61-.04-2.33-1.05-2.25-2.63.09-1.82,1.13-2.63,2.96-2.63Z"/>
      <path class="cls-84" d="M563.26,269.33c-2.79,2.2-4.64,2.99-7.32,3.21,1.35-3.2,3.54-3.36,7.32-3.21Z"/>
      <path class="cls-50" d="M360.48,59.71c-5.42.04-10.84.08-16.25.12,5.4-1.93,10.83-.7,16.25-.12Z"/>
      <path class="cls-47" d="M303.27,158.84c-2.51-2.05-3.86-4.91-5.33-7.68-3.8-7.15-7.45-14.39-11.46-21.42-5.57-9.77-3.09-14.38,8.3-14.88.83-.04,1.65-.03,2.48-.04q-7.42,9.45-1.49,20.02c3.72,6.58,5.57,13.81,7.53,21.01-.01,1-.02,1.99-.03,2.99Z"/>
      <path class="cls-12" d="M281.42,400.64c-.37-.92-.86-1.81-1.1-2.76-1.52-5.89-1.7-11.94,3.12-16.19,5.17-4.55,11.59-4.86,18.91-2.37-5.31,4.05-12.59,3.52-15.73,9.52-1.73,3.93-3.47,7.86-5.2,11.79Z"/>
      <path class="cls-71" d="M261.38,414.86c-1.4,1.3-2.8,2.6-4.19,3.9-5.66,1.97-11.45,3.09-17.49,3.03-3.82-.04-6.78-1.25-8.46-4.85.78-2.52,2.85-2.17,4.84-2.35,2.33-.21,4.77.45,7.01-.69,5.69-1.03,11.6,1.31,17.21-1.12.68.53,1.25,1.12,1.09,2.09Z"/>
      <path class="cls-35" d="M267.26,427.73c3.12-2.51,4.88-7.02,9.89-6.76,1.62,1.25,3.89,2.03,2.56,4.95-1.59,3.5-7.71,8.01-10.39,7.24-2.98-.86-1.34-3.63-2.06-5.43Z"/>
      <path class="cls-30" d="M261.38,414.86c-.36-.7-.73-1.4-1.09-2.09,6.56-5.37,11.34-5.95,15.24-1.95,2.26,2.32,1.81,3.59-1.33,4.07-4.27-.54-8.55-.65-12.82-.03Z"/>
      <path class="cls-30" d="M243.09,413.89c-3.13,4.21-7.75,2.6-11.85,3.04-2.68-.62-5.35-1.25-8.83-2.06,4.41-3.58,8.78-2.9,12.9-3.27,2.59.76,5.18,1.53,7.77,2.29Z"/>
      <path class="cls-9" d="M199.3,95.84c-3.72-3.39-2.15-8.15-2.57-12.15-.5-4.78-2.69-6.29-6.73-6.81-3.62-.46-7.43-.64-8.67-5.14.42-2.39,2.49-2.5,4.19-2.76,9.96-1.52,18.31-6.12,25.83-12.68,1.76-1.53,3.64-4.31,6.86-2.51,2.52.76,3.04,2.73,3.04,5.02,0,2.95,0,5.9.03,8.86.04,6.94,1.28,8.51,8.02,10.19.37,3.86-2.69,3.18-4.74,3.33-5.72.43-11.36-.92-16.49-1.06,9.96,1.16,20.63,1.08,31.09,3.12,1.94.38,4.62.26,4.12,3.59-9.52,7.15-15.5,16.79-18.2,28.15-3.92,16.48-9.28,32.26-18.58,46.54-3.35,5.14-7.88,8.99-13.05,12.1-5.55,3.34-10.85,1.79-13.69-4.05-2.71-5.58-3.22-11.49-1.66-17.52,2.74-10.61.29-14.97-10.52-17-7.88-1.48-14.54-4.59-19.34-11.15-.48-.65-.67-1.51-.99-2.27.18-5.02,4.2-6.01,7.8-7.46,2.64,1.59,4.7,0,6.76-1.3,2.1-1.32,4.04-3.45,6.56-.75,1.18,4.54-2.83,7.05-3.7,9.79,9.7-8.43,21.11-15.9,33.1-22.56,1.42-.79,3.94-1.09,1.53-3.53Z"/>
      <path class="cls-11" d="M170.33,194.8c-1.38-4-5.25-6.64-6.02-10.97,3.55,3.88,7.72,3.95,12.71,3.08,19.2-3.33,32.74-13.65,40.93-31.3,4.97-10.7,9.95-21.41,15.48-31.81,4.89-9.2,10.55-17.99,15.86-26.96,1.65,4,3.3,7.99,4.95,11.99.36,2.67.72,5.34,1.08,8-.53,3.41-2.19,6.13-4.6,8.61-4.56,4.68-8.16,10.07-10.58,16.16-3.99,10.07-9.33,19.49-14.61,28.88-6.25,11.13-16.73,17.76-28.02,23-3.9,1.81-8.13,2.88-11.78,5.3-3.1,2.06-6.29,2.17-9.45.05-1.99-1.35-3.98-2.69-5.97-4.04Z"/>
      <path class="cls-12" d="M243.29,86.86c-9.26-2.94-19.02-2.35-28.47-3.95-5.13-.87-10.29-1.55-14.92-4.37,9.81-1.33,19.68,1.99,29.4-.68,5.8-.32,11.52.09,16.91,2.4,4.21,1.8,7.76,4.34,8.04,9.54-3.98.22-7.19-2.39-10.96-2.95Z"/>
      <path class="cls-85" d="M222.24,334.62c4.77-.49,9.52-1.33,14.34-.96,1.12.09,2.54.06,2.63,1.62.07,1.27-1.21,1.36-2.11,1.71-3.22,1.28-6.79,1.6-9.79,3.5-4.35.92-7.81,3.48-11.28,6.06-.77.57-1.58,1.41-2.65.76-1-.61-.87-1.73-.78-2.69.53-5.89,4.53-8.48,9.63-9.99Z"/>
      <path class="cls-15" d="M227.23,371.65c2.78.05,5.55.06,8.33.16,1.13.04,2.57.1,2.74,1.49.19,1.57-1.48,1.42-2.44,1.88-1.17.56-2.37,1.05-3.56,1.57-5.1.9-9.88,2.39-12.95,7.04-1.44.72-1.72,3.5-3.68,2.79-2.1-.76-1.45-3.13-1.42-4.88.09-5.01,3.6-7.18,7.67-8.69,1.7-.63,3.53-.92,5.29-1.36Z"/>
      <path class="cls-1" d="M176.3,198.84c1.64-.21,3.5,0,4.88-.7,11.87-6.13,25.01-9.99,34.93-19.65,3.5-3.41,6.45-7.11,8.61-11.48,5.59-11.3,11.08-22.65,16.95-33.8,3.35-6.35,8.69-11.24,13.64-16.36,2.46,12.48,5.24,25-4.44,35.97-1.23,1.39-1.29,2.93-.85,4.67,2.97,11.8-1.65,21.43-8.73,30.34-4.08,4.01-9.17,5.29-14.63,6.69-11.6,2.96-23.15,6.13-34.75,9.09-6.51,1.66-11.36-.06-15.62-4.76Z"/>
      <path class="cls-61" d="M299.98,98.9c.11.65.22,1.29.33,1.94,1.08,2.64.11,4.89-2.26,5.75-4.83,1.75-9.93,2.66-15.05,3.3-1.57.19-2.9-.56-3.63-2.09.78-3.52,2.62-6.41,5.25-8.82,5.25-4.81,9.74-4.83,15.35-.07Z"/>
      <path class="cls-77" d="M279.37,107.79c6.02-.09,11.66-2.3,17.53-3.21,2.04-.32,3.13-1.71,3.4-3.74,1.81,3.56.83,6.84-1,10.03-5.44-.08-10.72.84-15.9,2.43-2.02.62-4.21,1.68-5.16-1.48.38-1.34.75-2.69,1.13-4.03Z"/>
      <path class="cls-9" d="M192.28,88.94c-10.63-.01-21.27-.27-31.77,1.83-.37.02-.74.05-1.11.07-.26-2.59.67-4.61,2.86-6.04,4.17-3.51,9-3.12,14.06-2.98,6.49.18,11.35,3.17,15.95,7.12Z"/>
      <path class="cls-51" d="M71.65,233.8c.2-.34.4-.69.6-1.03,2.93-5.58,5.86-11.18,9.98-16.02,2.13-2.51,4.45-4.75,8.32-5.07-9.6,16.62-19.6,32.92-26.81,50.68l-1.19-.41c3.03-9.38,6.07-18.76,9.1-28.15Z"/>
      <path class="cls-18" d="M531.34,359.7c1.52-2.78.12-6.14,1.75-8.91v8.79c2.5.75,3.06-1.43,4.45-2.07,1.51-.69,3.02-1.82,4.58-.63,1.52,1.16,1.18,2.99.74,4.59-.48,1.74-1.13,3.43-1.71,5.14-2.96,3.47-3.92,8.67-8.97,10.31-2.62-2.91-1.23-6.32-.9-9.46.16-1.55.59-3.18.84-4.78-.25-1-.51-1.99-.76-2.99Z"/>
      <path class="cls-85" d="M303.29,289.7c1.76,1.21,4.18,1.2,5.64,2.99-.13.31-.19.78-.35.82-3.2.69-8.05-.55-9.29,2.27-2.68,6.12-7.11,11.74-7.07,18.9-.59,2.31-1.19,4.62-1.78,6.93-.46-.03-.92-.06-1.38-.08,2.5-8.5-.89-16.89.48-25.32.66-4.08,3.71-6.17,7.78-6.5,1.98-.16,3.98,0,5.97,0Z"/>
      <path class="cls-73" d="M33.17,431.94c-7.46-10.74-13.71-22.14-18.87-34.15-.73-5.75-2.59-11.36-2.07-17.26.16-1.82.1-3.66.98-5.35.79-1.52,1.71-3.04,3.62-3,1.81.03,2.32,1.67,2.85,3.07.93,2.48,1.8,4.98,2.7,7.47,3.09.58,3.36,3.44,4.27,5.59,2.05,4.83,4.89,9.03,8.85,12.45,1.56,1.35,3.31,2.42,5.42,1.33,2-1.03,2.5-2.98,2.58-5.05.08-2.02-.5-3.94-.93-5.88-2.06-9.24-2.94-18.65-4.01-28.03-.22-1.92.42-3.19,1.73-4.34.25-1.65-.05-3.42,1.02-4.9,3.89,15.41,9.49,30.35,12.46,46,.62,3.25,1.13,6.52,1.69,9.78.1,5.69-2.69,9.62-7.5,12.34-3.78,2.13-7.11,4.79-9.75,8.27-1.27,1.69-2.76,2.93-5.04,1.65Z"/>
      <path class="cls-79" d="M33.17,431.94c4.89-5.44,10.03-10.54,16.47-14.26,2.95-1.7,3.73-5.42,5.82-8,3.36,10.66,5.2,21.84,11.08,31.63,2.2,3.67,4.56,7.28,5.88,11.41-2.7,3.25-6.09.26-9.07,1.02-2.58,1.53-3.43-.83-4.68-2.13-1.66-1.73-2.3-4.31-4.71-5.86-1.09,2.03,1.55,4.35-.61,6-1.02,3.43-3.58,4.71-6.9,4.9-3.24-8.87-9.25-16.26-13.27-24.71Z"/>
      <path class="cls-85" d="M33.49,270.83c-.37,13.32-4.2,25.59-11.21,36.89-3.02,3.41-4.72,7.58-6.62,11.63-.8,1.71-1.61,3.52-3.94,2.92-2.28-.59-2.35-2.6-2.16-4.46.63-6.31,1.51-12.6,5.65-17.75,7.57-9.43,12.71-20.16,17.07-31.33-.01-.77.42-1.2,1.04-.73,1.04.79.85,1.84.17,2.83Z"/>
      <path class="cls-34" d="M33.49,270.83c-.26-.78-.04-1.84-1.21-2.1-1.64-2.92.13-5.13,1.66-7.26,9.73-13.6,17.46-28.52,27.54-41.89,1.51-2,2.77-4.15,2.87-6.77,3.73,5.74,2.75,11.51-1.47,16.07-8.41,9.11-12.51,20.63-18.61,31.02-2.66,4.52-4.81,9.62-10.77,10.92Z"/>
      <path class="cls-71" d="M40.29,358.79c2.12,12.24,2.79,24.7,5.78,36.8.44,1.78.09,3.61-.49,5.39-1.96,6.01-5.51,7.16-10.42,3.04-6.68-5.6-11.14-12.63-12.79-21.3,1.58-7.29,4.18-14.19,7.9-20.67,2.35-4.09,5.35-6.25,10.02-3.26Z"/>
      <path class="cls-33" d="M532.11,362.69c1.76,4.74,1.49,9.49.07,14.24-3.21,1.16-3.73-.95-3.96-3.31-.42-4.24,1.12-7.81,3.89-10.93Z"/>
      <path class="cls-44" d="M53.34,451.75c-1.43-1.83-2.51-3.85-3.18-6.07-.57-1.88-1.56-4.06.79-5.24,2.26-1.13,3.74.82,4.86,2.35,2.63,3.56,5.03,7.29,7.53,10.96,1.14,2.56,5.91,4.94,2.16,7.77-2.97,2.24-4.7-2.3-6.78-4.01-2.01-1.65-3.61-3.81-5.39-5.75Z"/>
      <path class="cls-65" d="M199.3,95.84c2.22.3,4.4-1.3,8.1.19-16.37,10.36-32.5,19.28-46.5,31.52.8-5.63,3.43-10.25,6.46-14.7,1.67-7.21,11.84-14.17,18.95-12.98l12.99-4.03Z"/>
      <path class="cls-43" d="M186.31,99.87c-6.6,3.92-13.72,7.07-18.95,12.98-2.61-.05-4.32,1.99-6.56,2.82-1.84.68-3.61,1.53-5.49.17,4.73-4.66,9.05-9.85,14.29-13.82,5.43-4.11,11.35-7.97,18.69-8.09-.99,1.87-1.91,3.77-1.99,5.94Z"/>
      <path class="cls-66" d="M128.15,510.91c-1.21-1.45-1.8-3.16-2.09-5,3.08-2.1,4.86.57,6.8,2.04,1.29.98.58,2.13-.81,2.48-1.26.32-2.6.33-3.9.48Z"/>
    </g>
  </g>
</svg>